# xmcd
#
# Track frame offsets:
#	150
#	17533
#	27724
#	41060
#	54065
#	73952
#	83949
#	98591
#	113778
#	131344
#	147303
#	164369
#	187156
#	201011
#	218968
#	239018
#	252318
#	270132
#	291775
#	308024
#
# Disc length: 4337 seconds
#
# Revision: 1
# Processed by: cddbd v1.4PL0 Copyright (c) Steve Scherf et al.
# Submitted via: audiograbber 1.81.02
#
DISCID=2310ef14
DTITLE=диажояа 03 - диажояа 03
DYEAR=1900
DGENRE=
TTITLE0=лпасгс - г фыг
TTITLE1=поукопоуккос - жике ека апоье
TTITLE2=акйимоос - ле тоса ьелата
TTITLE3=акйимоос - ха 'лаи йомта соу
TTITLE4=акйимоос - адиенодо
TTITLE5=акйимоос - паяайкгсг
TTITLE6=акйимоос - оса г ацапг омеияеутаи
TTITLE7=акйимоос - омеияо гтаме
TTITLE8=акйимоос - йахяежтгс
TTITLE9=йотсияас - кееи
TTITLE10=йотсияас - пыс лпояы
TTITLE11=пяытоьактг - тяаба сйамдакг
TTITLE12=йотсияас - паеи
TTITLE13=ейеимос and ейеимос - та коциа йоллатиа
TTITLE14=ейеимос and ейеимос - еипес
TTITLE15=ейеимос and ейеимос - ема яодо йаи ема ацйаху
TTITLE16=лайедомас - тгс фыгс лоу аямгсг
TTITLE17=тамиа NASSIBIAN - дайяу цуаки
TTITLE18=акениоу ваяис - ма лаи йака
TTITLE19=донас йыстас - еяытас йкежтгс
EXTD=Compiled By EugeneC
EXTT0=
EXTT1=
EXTT2=
EXTT3=
EXTT4=
EXTT5=
EXTT6=
EXTT7=
EXTT8=
EXTT9=
EXTT10=
EXTT11=
EXTT12=
EXTT13=
EXTT14=
EXTT15=
EXTT16=
EXTT17=
EXTT18=
EXTT19=
PLAYORDER=
